<svg width="272" height="321" viewBox="0 0 272 321" fill="none" xmlns="http://www.w3.org/2000/svg">
<g clip-path="url(#clip0)">
<path d="M129.72 105.08L244.61 302.82H14.82L129.71 105.08H129.72Z" fill="url(#paint0_radial)"/>
<path opacity="0.25" d="M196.39 303.58L244.63 302.82L203.09 231.35L239.49 302.82L231.57 303.58L221.02 282.95L228.07 302.82H224.07L218.28 291.14L221.18 302.82H213.08L189.64 247.23L209.5 302.82H197.66C197.16 287.4 173.94 278.82 179.08 281.42C191.82 287.83 199.34 294.2 196.39 303.58Z" fill="#FFF2BB"/>
<path opacity="0.25" d="M35.78 302.82L40.75 282.96L30.82 302.82H25.99L42.21 266.96L21.99 302.82H19.49L50.99 242.08L12.32 302.82H35.78Z" fill="#FFF2BB"/>
<path opacity="0.08" d="M134.72 122.59L194.82 218.91L129.72 105.09L86.24 179.9L128.83 115.91L140.61 140.41L134.72 122.59Z" fill="white"/>
<path d="M215.68 57.46C218.957 57.5545 222.12 58.6899 224.709 60.7018C227.298 62.7136 229.179 65.4973 230.08 68.6498C230.981 71.8023 230.856 75.1598 229.721 78.2361C228.587 81.3123 226.502 83.9475 223.77 85.76H224.23C226.642 85.762 229.021 85.1993 231.177 84.1168C233.332 83.0343 235.204 81.4622 236.643 79.5263C238.082 77.5904 239.047 75.3445 239.462 72.9685C239.877 70.5924 239.73 68.1522 239.033 65.8432C238.336 63.5342 237.107 61.4205 235.447 59.6714C233.786 57.9223 231.738 56.5863 229.468 55.7705C227.199 54.9547 224.769 54.6817 222.375 54.9734C219.98 55.265 217.688 56.1132 215.68 57.45V57.46Z" fill="#FFE589"/>
<path d="M3 125.76V131.76" stroke="url(#paint1_radial)" stroke-miterlimit="10"/>
<path d="M6 128.76H0" stroke="url(#paint2_radial)" stroke-miterlimit="10"/>
<path d="M188.07 102.08V114.08" stroke="url(#paint3_radial)" stroke-miterlimit="10"/>
<path d="M194.07 108.08H182.07" stroke="url(#paint4_radial)" stroke-miterlimit="10"/>
<path d="M93.86 52.56V60.56" stroke="url(#paint5_radial)" stroke-miterlimit="10"/>
<path d="M97.86 56.56H89.86" stroke="url(#paint6_radial)" stroke-miterlimit="10"/>
<path d="M85.91 150.48V156.48" stroke="url(#paint7_radial)" stroke-miterlimit="10"/>
<path d="M88.91 153.48H82.91" stroke="url(#paint8_radial)" stroke-miterlimit="10"/>
<path d="M19 137.76V151.76" stroke="url(#paint9_radial)" stroke-miterlimit="10"/>
<path d="M26 144.76H12" stroke="url(#paint10_radial)" stroke-miterlimit="10"/>
<g opacity="0.33">
<path opacity="0.33" d="M70.86 206.37V80.5" stroke="#333333" stroke-width="3" stroke-linecap="round" stroke-linejoin="round"/>
<path opacity="0.33" d="M96.86 106.5L70.86 80.5L44.86 106.5" stroke="#333333" stroke-width="3" stroke-linecap="round" stroke-linejoin="round"/>
<path opacity="0.33" d="M228.07 150.41L208.07 130.41L188.07 150.41" stroke="#333333" stroke-width="3" stroke-linecap="round" stroke-linejoin="round"/>
<path opacity="0.33" d="M228.07 163.48L208.07 143.48L188.07 163.48" stroke="#333333" stroke-width="3" stroke-linecap="round" stroke-linejoin="round"/>
<path opacity="0.33" d="M208.07 239.93V130.41" stroke="#333333" stroke-width="3" stroke-linecap="round" stroke-linejoin="round"/>
<path opacity="0.33" d="M228.07 193.83L208.07 173.83L188.07 193.83" stroke="#333333" stroke-width="3" stroke-linecap="round" stroke-linejoin="round"/>
<path opacity="0.33" d="M96.86 136.5L70.86 110.5L44.86 136.5" stroke="#333333" stroke-width="3" stroke-linecap="round" stroke-linejoin="round"/>
<path opacity="0.33" d="M32.07 273.13V188.41" stroke="#333333" stroke-width="3" stroke-linecap="round" stroke-linejoin="round"/>
<path opacity="0.33" d="M47.07 203.41L32.07 188.41L17.07 203.41" stroke="#333333" stroke-width="3" stroke-linecap="round" stroke-linejoin="round"/>
<path opacity="0.33" d="M47.07 223.41L32.07 208.41L17.07 223.41" stroke="#333333" stroke-width="3" stroke-linecap="round" stroke-linejoin="round"/>
</g>
<path d="M140.61 86.33L14.82 302.82L8.24 282.96" stroke="#333333" stroke-width="3" stroke-linecap="round" stroke-linejoin="round"/>
<path d="M244.61 302.82L118.82 86.33" stroke="#333333" stroke-width="3" stroke-linecap="round" stroke-linejoin="round"/>
<path d="M31.2 287.33L22.82 302.82" stroke="#333333" stroke-width="1.5" stroke-linecap="round" stroke-linejoin="round"/>
<path d="M42.21 266.96L33.9 282.33" stroke="#333333" stroke-width="1.5" stroke-linecap="round" stroke-linejoin="round"/>
<path d="M40.75 282.96L30.82 302.82" stroke="#333333" stroke-width="1.5" stroke-linecap="round" stroke-linejoin="round"/>
<path d="M124.72 105.08H134.72" stroke="#333333" stroke-width="3" stroke-linecap="round" stroke-linejoin="round"/>
<path d="M5.91 283.73L9.91 282.41" stroke="#333333" stroke-width="3" stroke-linecap="round" stroke-linejoin="round"/>
<path d="M244.63 302.82L246.94 282.03" stroke="#333333" stroke-width="3" stroke-linecap="round" stroke-linejoin="round"/>
<path d="M249.38 282.3L245.19 281.83" stroke="#333333" stroke-width="3" stroke-linecap="round" stroke-linejoin="round"/>
<path d="M196.39 263.27L195.32 260.72" stroke="#333333" stroke-width="1.5" stroke-linecap="round" stroke-linejoin="round"/>
<path d="M193.16 255.61L189.63 247.23" stroke="#333333" stroke-width="1.5" stroke-linecap="round" stroke-linejoin="round"/>
<path d="M213.07 302.82L198.55 268.39" stroke="#333333" stroke-width="1.5" stroke-linecap="round" stroke-linejoin="round"/>
<path d="M231.57 302.82L221.02 282.33" stroke="#333333" stroke-width="1.5" stroke-linecap="round" stroke-linejoin="round"/>
<path d="M224.07 302.82L218.28 290.69" stroke="#333333" stroke-width="1.5" stroke-linecap="round" stroke-linejoin="round"/>
<path opacity="0.25" d="M248.652 280.744L244.87 280.373C244.403 280.327 243.987 280.669 243.941 281.136C243.895 281.603 244.237 282.019 244.704 282.065L248.486 282.436C248.953 282.482 249.369 282.14 249.415 281.673C249.46 281.206 249.119 280.79 248.652 280.744Z" fill="#FFF2BB"/>
<path opacity="0.25" d="M6.69044 283.685L10.3199 282.559C10.7683 282.42 11.019 281.944 10.88 281.495C10.7409 281.047 10.2647 280.796 9.81635 280.935L6.18689 282.061C5.73852 282.2 5.48775 282.676 5.6268 283.125C5.76585 283.573 6.24207 283.824 6.69044 283.685Z" fill="#FFF2BB"/>
<path d="M192.07 302.82H184.86C183.78 297.82 181.28 292.72 175.57 289.33C171.512 286.881 167.105 285.064 162.5 283.94C175.68 274.72 190.57 287.84 194.65 291.26C198.73 294.68 197.65 302.83 197.65 302.83L192.07 302.82Z" fill="#515151"/>
<path d="M169.86 311.25H156.65C155.65 309.16 154.06 307.39 151.32 307.33C151.78 302.88 153 294.08 148.32 287.67C150.07 284.31 153.68 283.09 158.03 283.31C159.523 283.386 161.005 283.597 162.46 283.94C167.065 285.064 171.472 286.881 175.53 289.33C181.24 292.72 183.74 297.81 184.82 302.82C185.375 305.596 185.649 308.42 185.64 311.25H169.86Z" fill="#515151"/>
<path d="M158.07 225.08C172.32 238.83 172.57 263.83 158.07 283.31C153.72 283.09 150.07 284.31 148.36 287.67C147.789 286.88 147.142 286.146 146.43 285.48C149.99 276.91 147.99 265.25 142.82 260.91C142.32 270.58 139.02 276.91 133 280.23C132.38 280.16 131.74 280.11 131.07 280.08C135.65 268.41 119.45 245.75 127.72 219.75C116.99 241.75 87.24 251.36 108.72 286.88C108.029 288.054 107.561 289.346 107.34 290.69C104.684 288.628 101.794 286.886 98.73 285.5C70.86 259.93 77.32 226.44 95.82 208.11C115.15 188.95 129.07 173.86 123.82 152.36C161.32 178.36 152.07 228.61 142.07 245.59C147.82 243.04 155.57 235.58 158.07 225.08Z" fill="#D67878"/>
<path d="M148.34 287.69C152.98 294.1 151.76 302.9 151.34 307.35C154.08 307.41 155.7 309.18 156.67 311.27C157.566 313.438 158.048 315.755 158.09 318.1H100.59C100.13 315.851 99.8789 313.565 99.84 311.27C99.65 301.17 103.84 293.79 107.09 292.35C107.17 291.99 107.23 291.41 107.37 290.69C107.606 289.35 108.088 288.065 108.79 286.9C111.03 283.23 116.59 279.34 131.09 280.1C131.76 280.1 132.4 280.18 133.02 280.25C139.36 280.87 143.62 282.85 146.45 285.5C147.148 286.168 147.781 286.901 148.34 287.69Z" fill="#515151"/>
<path d="M142.82 260.91C147.99 265.25 149.99 276.91 146.43 285.48C143.6 282.83 139.34 280.85 133 280.23C139.02 276.87 142.34 270.58 142.82 260.91Z" fill="#FFF2BB"/>
<path d="M127.72 219.75C119.45 245.75 135.65 268.41 131.07 280.08C116.57 279.32 111.01 283.21 108.77 286.88C87.24 251.36 116.99 241.75 127.72 219.75Z" fill="#FFF2BB"/>
<path d="M91.63 311.25H66.4C66.4 311.25 64.07 307.83 64.24 306C64.7222 304.852 65.369 303.781 66.16 302.82C70.07 297.39 79.04 286.82 84.98 283.42C85.9241 282.795 87.0114 282.42 88.14 282.33C91.14 282.33 95.14 283.77 98.72 285.47C101.789 286.865 104.682 288.617 107.34 290.69C107.2 291.41 107.14 291.99 107.06 292.35C103.77 293.79 99.62 301.17 99.81 311.27H91.62L91.63 311.25Z" fill="#515151"/>
<path d="M56.74 302.82C56.74 302.82 69.98 273.68 84.98 283.42C79.04 286.82 70.07 297.42 66.16 302.82H56.74Z" fill="#515151"/>
<path opacity="0.25" d="M135.26 290.92C136.1 290.58 139.26 289.11 139.26 291.51C140.1 290.76 141.14 289.23 139.26 288.51C137.38 287.79 134.48 288.89 135.26 290.92Z" fill="black"/>
<path opacity="0.25" d="M78.14 298.95C78.35 298.06 79.02 294.62 80.97 296.02C80.85 294.9 80.21 293.17 78.51 294.25C76.81 295.33 76.04 298.4 78.14 298.95Z" fill="black"/>
<g opacity="0.75">
<path opacity="0.75" d="M114.66 293.91C113.83 289.99 123.24 277.6 145.24 286.91C140.24 281.82 127.51 278.03 118.13 280.98C115.485 281.735 113.09 283.184 111.192 285.176C109.295 287.168 107.965 289.631 107.34 292.31C108.605 292.081 109.904 292.104 111.16 292.379C112.416 292.653 113.606 293.174 114.66 293.91Z" fill="#FFF2BB"/>
<path opacity="0.75" d="M105.16 292.34C92.83 287.49 87.49 281.41 66.41 305.49C63.66 303.74 80.88 285.05 84.77 283.27C88.66 281.49 106.68 291.07 106.68 291.07L105.16 292.34Z" fill="#FFF2BB"/>
<path opacity="0.75" d="M151.2 290.69C158.33 286.46 166.85 286.14 184.02 299.8C175.45 287.96 164.97 281.21 155.7 283.35C146.43 285.49 147.57 288.26 147.57 288.26L151.2 290.69Z" fill="#FFF2BB"/>
<path opacity="0.75" d="M80.34 286.88C76.06 285.88 70.21 286.36 64.22 291.76C76.73 280.24 76.12 279.05 84.76 283.27C83.4293 284.638 81.9463 285.849 80.34 286.88Z" fill="#FFF2BB"/>
<path opacity="0.75" d="M170.88 286.8C176.07 284.8 184.2 285.48 191.4 291.14C189.99 284.43 187.59 285.08 180.15 282.33C172.71 279.58 163.52 283.28 163.52 283.28L170.88 286.8Z" fill="#FFF2BB"/>
<path opacity="0.75" d="M123.87 316.99C126.39 308.39 126.87 307.7 134.45 305.08C128.45 309.46 128.84 313.43 127.99 318.75C125.89 319.06 123.87 316.99 123.87 316.99Z" fill="#FFF2BB"/>
<path opacity="0.75" d="M114.66 294.58C117.2 298.14 102.83 291.2 102.83 316.71C100.44 317.36 100.08 316.71 100.08 316.71C100.08 316.71 98.83 294.77 107.36 292.9C115.89 291.03 114.66 294.58 114.66 294.58Z" fill="#FFF2BB"/>
<path opacity="0.75" d="M141.34 316.99C141.97 312.99 144.59 308.37 150.92 307.87C156.61 308.81 156.21 314.7 156.21 314.7C153.02 309.14 144.84 312.33 142.27 316.7C141.57 318.08 141.34 316.99 141.34 316.99Z" fill="#FFF2BB"/>
<path opacity="0.75" d="M169.44 309.51C170.2 303.57 169.44 295.95 182.44 300.16C184.54 301.99 183.97 305.7 183.97 305.7C179.33 299.39 170.71 301.51 170.21 309.51C169.89 310.01 169.44 309.51 169.44 309.51Z" fill="#FFF2BB"/>
</g>
<path d="M155.7 283.34C165.95 261.69 165.34 246.43 158.34 239.93C155.22 245.68 145.25 250.83 136.34 250.2C143.47 233.7 152.05 197.02 131.17 173.9C128.3 194.48 96.17 214.08 89.84 227.33C85.76 235.88 78.84 256.51 100.03 285.61C84.22 273.21 72.74 249.99 84.79 223.42C96.84 196.85 128.14 187.6 124.34 154.2C140.18 159.83 162.14 199.56 142.43 244.95C148.75 243.58 157.43 231.47 158.32 225.34C176.56 253.83 168.12 264.46 158.78 282.96C157.82 283.41 156.741 283.543 155.7 283.34Z" fill="#C95B5B"/>
<path d="M93.0034 239.372C93.4885 236.161 92.8856 233.408 91.6569 233.222C90.4282 233.037 89.039 235.489 88.5539 238.7C88.0689 241.911 88.6717 244.665 89.9004 244.85C91.1291 245.036 92.5184 242.583 93.0034 239.372Z" fill="#C95B5B"/>
<path d="M113.88 282.95C109.51 278.03 107.07 270.33 115.66 264.33C121.29 260.22 124.66 271.88 121.46 280.33C118.92 280.11 113.88 282.95 113.88 282.95Z" fill="white"/>
<path d="M148.34 285.6C151.81 279.6 153.56 278.32 153.93 271.45C155.93 275.08 159.82 276.91 162.93 261.99C161.8 271.07 158.93 282.73 155.67 283.34C153.17 283.895 150.719 284.651 148.34 285.6Z" fill="#C95B5B"/>
<path d="M160.25 264.73C160.76 261.848 160.035 259.31 158.632 259.062C157.229 258.814 155.678 260.949 155.169 263.832C154.659 266.714 155.383 269.252 156.786 269.5C158.189 269.748 159.74 267.613 160.25 264.73Z" fill="#C95B5B"/>
<path d="M159.65 256.86C160.34 256.86 160.9 256.3 160.9 255.61C160.9 254.92 160.34 254.36 159.65 254.36C158.96 254.36 158.4 254.92 158.4 255.61C158.4 256.3 158.96 256.86 159.65 256.86Z" fill="#C95B5B"/>
<path d="M143.56 201.58C144.22 215.31 137.95 229.2 134.95 232.58C139.45 230.71 142.95 231.39 140.02 239.93C140.02 239.93 145.33 234.81 146.83 220.76C148.33 206.71 143.56 201.58 143.56 201.58ZM141.89 228.21C141.23 229.63 140.12 230.51 139.42 230.21C138.72 229.91 138.69 228.47 139.35 227.05C140.01 225.63 141.12 224.75 141.82 225.05C142.52 225.35 142.55 226.79 141.89 228.21Z" fill="#C95B5B"/>
<path d="M109.17 205.93C109.17 205.93 110.95 198.2 96.57 213.45C82.19 228.7 87.02 234.76 87.02 234.76C90.6 219.57 101.19 222.45 96.44 230.76C102.57 226.2 109.19 221.07 113.82 209.07C108.2 215.2 103.13 211.76 109.17 205.93ZM103.17 223.24C102.78 223.78 102.17 224.03 101.89 223.81C101.61 223.59 101.64 222.96 102.03 222.42C102.42 221.88 103.03 221.63 103.31 221.85C103.59 222.07 103.53 222.69 103.14 223.24H103.17ZM105.17 217.75C104.01 219.2 102.33 219.75 101.43 219.05C100.53 218.35 100.74 216.57 101.9 215.12C103.06 213.67 104.74 213.12 105.64 213.82C106.54 214.52 106.28 216.3 105.11 217.75H105.17Z" fill="#C95B5B"/>
<path d="M158.07 283.3C172.57 263.82 172.32 238.82 158.07 225.07C155.57 235.57 147.82 243.07 142.07 245.55C152.07 228.55 161.32 178.32 123.82 152.32C129.07 173.82 115.15 188.91 95.82 208.07C77.32 226.4 70.82 259.9 98.74 285.47" stroke="#7F2F2F" stroke-width="4" stroke-linecap="round" stroke-linejoin="round"/>
<path d="M100.57 318.08H158.07C158.07 318.08 158.07 307.46 151.32 307.33C152.07 300.08 154.82 281.33 131.07 280.08C107.32 278.83 107.57 290.08 107.07 292.33C103.07 294.08 97.82 304.58 100.57 318.08Z" stroke="#333333" stroke-width="4" stroke-linecap="round" stroke-linejoin="round"/>
<path d="M99.82 311.25H66.41C66.41 311.25 64.08 307.83 64.24 306C64.4 304.17 81.57 282.33 88.16 282.33C94.75 282.33 105.79 289.1 107.36 290.67" stroke="#333333" stroke-width="4" stroke-linecap="round" stroke-linejoin="round"/>
<path d="M148.34 287.69C152.25 280.18 165.42 283.35 175.55 289.35C184.64 294.74 185.55 304.45 185.66 311.27" stroke="#333333" stroke-width="4" stroke-linecap="round" stroke-linejoin="round"/>
<path d="M66.17 302.82H56.74C56.74 302.82 70 273.67 84.99 283.41" stroke="#333333" stroke-width="4" stroke-linecap="round" stroke-linejoin="round"/>
<path d="M184.86 302.82H197.66C197.66 302.82 198.74 294.66 194.66 291.24C190.58 287.82 175.66 274.7 162.51 283.93" stroke="#333333" stroke-width="4" stroke-linecap="round" stroke-linejoin="round"/>
<path d="M56.74 302.82H4.82001" stroke="#333333" stroke-width="4" stroke-linecap="round" stroke-linejoin="round"/>
<path d="M197.65 302.82H254.61" stroke="#333333" stroke-width="4" stroke-linecap="round" stroke-linejoin="round"/>
<path d="M66.4 311.25H56.4" stroke="#333333" stroke-width="4" stroke-linecap="round" stroke-linejoin="round"/>
<path d="M100.57 318.08H90.57" stroke="#333333" stroke-width="4" stroke-linecap="round" stroke-linejoin="round"/>
<path d="M195.68 311.25H185.68H156.65" stroke="#333333" stroke-width="4" stroke-linecap="round" stroke-linejoin="round"/>
<path d="M158.07 318.08H168.07" stroke="#333333" stroke-width="4" stroke-linecap="round" stroke-linejoin="round"/>
<path d="M106.34 307.95C105.711 311.353 106.058 314.865 107.34 318.08" stroke="#333333" stroke-width="2" stroke-linecap="round" stroke-linejoin="round"/>
<path d="M107.07 292.33C109.82 292.08 113.4 292.58 114.65 294.58" stroke="#333333" stroke-width="2" stroke-linecap="round" stroke-linejoin="round"/>
<path d="M145.91 310.49C144.515 311.178 143.357 312.267 142.585 313.618C141.814 314.968 141.464 316.519 141.58 318.07" stroke="#333333" stroke-width="2" stroke-linecap="round" stroke-linejoin="round"/>
<path d="M124.74 313.91L122.99 318.08" stroke="#333333" stroke-width="2" stroke-linecap="round" stroke-linejoin="round"/>
<path d="M134.95 290.22C134.95 289.22 136.22 288.32 137.78 288.32C139.34 288.32 140.61 289.17 140.61 290.22C140.61 291.27 139.34 292.12 137.78 292.12" stroke="#333333" stroke-width="2" stroke-linecap="round" stroke-linejoin="round"/>
<path d="M77.71 298.87C76.87 298.38 76.89 296.8 77.71 295.33C78.53 293.86 79.94 293.07 80.78 293.56C81.62 294.05 81.6 295.63 80.78 297.1" stroke="#333333" stroke-width="2" stroke-linecap="round" stroke-linejoin="round"/>
<path d="M91.63 306.02V311.25" stroke="#333333" stroke-width="2" stroke-linecap="round" stroke-linejoin="round"/>
<path d="M86.95 307.95V311.25" stroke="#333333" stroke-width="2" stroke-linecap="round" stroke-linejoin="round"/>
<path d="M172.34 301.41C170.01 303.66 168.42 308.91 170.26 312.08" stroke="#333333" stroke-width="2" stroke-linecap="round" stroke-linejoin="round"/>
<path d="M192.07 298.5V302.82" stroke="#333333" stroke-width="2" stroke-linecap="round" stroke-linejoin="round"/>
<path d="M49.4 311.25H45.4" stroke="#333333" stroke-width="4" stroke-linecap="round" stroke-linejoin="round"/>
<path d="M179.07 318.08H175.07" stroke="#333333" stroke-width="4" stroke-linecap="round" stroke-linejoin="round"/>
<path d="M137.32 135.42L139.5 140.1" stroke="#7F2F2F" stroke-width="4" stroke-linecap="round" stroke-linejoin="round"/>
<path d="M104.71 169.22L102.52 173.9" stroke="#7F2F2F" stroke-width="4" stroke-linecap="round" stroke-linejoin="round"/>
<path d="M127.04 80.5L126.52 83.5" stroke="#7F2F2F" stroke-width="4" stroke-linecap="round" stroke-linejoin="round"/>
<path d="M158.33 198.06L157.81 201.06" stroke="#7F2F2F" stroke-width="4" stroke-linecap="round" stroke-linejoin="round"/>
<path opacity="0.25" d="M185.01 303.58L184.86 302.82C183.78 297.82 181.28 292.72 175.57 289.33C165.44 283.33 152.27 280.16 148.36 287.67C145.45 283.67 140.23 280.56 131.07 280.08C111.07 279.08 108.07 286.83 107.35 290.67C105.78 289.1 94.74 282.33 88.15 282.33C87.0214 282.42 85.9341 282.795 84.99 283.42C69.99 273.68 56.75 302.82 56.75 302.82H66.17C65.98 303.09 65.8 303.34 65.64 303.58H7.84L7.60001 302.82C3.99249 291.384 2.16446 279.461 2.18 267.47C2.18 202.59 54.77 0 119.65 0C184.53 0 237.12 202.59 237.12 267.47C237.136 279.461 235.308 291.384 231.7 302.82L185.01 303.58Z" fill="url(#paint11_radial)"/>
<path d="M184.86 302.82H197.66C197.66 302.82 198.74 294.66 194.66 291.24C190.58 287.82 175.66 274.7 162.51 283.93" stroke="#333333" stroke-width="4" stroke-linecap="round" stroke-linejoin="round"/>
<path opacity="0.1" d="M127.04 87C129.801 87 132.04 84.7614 132.04 82C132.04 79.2386 129.801 77 127.04 77C124.279 77 122.04 79.2386 122.04 82C122.04 84.7614 124.279 87 127.04 87Z" fill="url(#paint12_radial)"/>
<path opacity="0.1" d="M138.87 143.76C142.184 143.76 144.87 141.074 144.87 137.76C144.87 134.446 142.184 131.76 138.87 131.76C135.556 131.76 132.87 134.446 132.87 137.76C132.87 141.074 135.556 143.76 138.87 143.76Z" fill="url(#paint13_radial)"/>
<path opacity="0.1" d="M103.48 177.56C106.794 177.56 109.48 174.874 109.48 171.56C109.48 168.246 106.794 165.56 103.48 165.56C100.166 165.56 97.48 168.246 97.48 171.56C97.48 174.874 100.166 177.56 103.48 177.56Z" fill="url(#paint14_radial)"/>
<path opacity="0.1" d="M158.4 205.56C161.714 205.56 164.4 202.874 164.4 199.56C164.4 196.246 161.714 193.56 158.4 193.56C155.086 193.56 152.4 196.246 152.4 199.56C152.4 202.874 155.086 205.56 158.4 205.56Z" fill="url(#paint15_radial)"/>
<path opacity="0.1" d="M233.99 105.09C254.701 105.09 271.49 88.3007 271.49 67.59C271.49 46.8793 254.701 30.09 233.99 30.09C213.279 30.09 196.49 46.8793 196.49 67.59C196.49 88.3007 213.279 105.09 233.99 105.09Z" fill="url(#paint16_radial)"/>
</g>
<defs>
<radialGradient id="paint0_radial" cx="0" cy="0" r="1" gradientUnits="userSpaceOnUse" gradientTransform="translate(125.12 258.08) scale(107.52)">
<stop stop-color="#4F4C59"/>
<stop offset="1" stop-color="#3F3D47"/>
</radialGradient>
<radialGradient id="paint1_radial" cx="0" cy="0" r="1" gradientUnits="userSpaceOnUse" gradientTransform="translate(-nan -nan) rotate(-nan) scale(-nan)">
<stop stop-color="#FFE589"/>
<stop offset="0.09" stop-color="#FFE589" stop-opacity="0.86"/>
<stop offset="0.29" stop-color="#FFE589" stop-opacity="0.6"/>
<stop offset="0.47" stop-color="#FFE589" stop-opacity="0.39"/>
<stop offset="0.63" stop-color="#FFE589" stop-opacity="0.22"/>
<stop offset="0.78" stop-color="#FFE589" stop-opacity="0.1"/>
<stop offset="0.91" stop-color="#FFE589" stop-opacity="0.03"/>
<stop offset="1" stop-color="#FFE589" stop-opacity="0"/>
</radialGradient>
<radialGradient id="paint2_radial" cx="0" cy="0" r="1" gradientUnits="userSpaceOnUse" gradientTransform="translate(-nan -nan) rotate(-nan) scale(-nan)">
<stop stop-color="#FFE589"/>
<stop offset="0.09" stop-color="#FFE589" stop-opacity="0.86"/>
<stop offset="0.29" stop-color="#FFE589" stop-opacity="0.6"/>
<stop offset="0.47" stop-color="#FFE589" stop-opacity="0.39"/>
<stop offset="0.63" stop-color="#FFE589" stop-opacity="0.22"/>
<stop offset="0.78" stop-color="#FFE589" stop-opacity="0.1"/>
<stop offset="0.91" stop-color="#FFE589" stop-opacity="0.03"/>
<stop offset="1" stop-color="#FFE589" stop-opacity="0"/>
</radialGradient>
<radialGradient id="paint3_radial" cx="0" cy="0" r="1" gradientUnits="userSpaceOnUse" gradientTransform="translate(-nan -nan) rotate(-nan) scale(-nan)">
<stop stop-color="#FFE589"/>
<stop offset="0.09" stop-color="#FFE589" stop-opacity="0.86"/>
<stop offset="0.29" stop-color="#FFE589" stop-opacity="0.6"/>
<stop offset="0.47" stop-color="#FFE589" stop-opacity="0.39"/>
<stop offset="0.63" stop-color="#FFE589" stop-opacity="0.22"/>
<stop offset="0.78" stop-color="#FFE589" stop-opacity="0.1"/>
<stop offset="0.91" stop-color="#FFE589" stop-opacity="0.03"/>
<stop offset="1" stop-color="#FFE589" stop-opacity="0"/>
</radialGradient>
<radialGradient id="paint4_radial" cx="0" cy="0" r="1" gradientUnits="userSpaceOnUse" gradientTransform="translate(-nan -nan) rotate(-nan) scale(-nan)">
<stop stop-color="#FFE589"/>
<stop offset="0.09" stop-color="#FFE589" stop-opacity="0.86"/>
<stop offset="0.29" stop-color="#FFE589" stop-opacity="0.6"/>
<stop offset="0.47" stop-color="#FFE589" stop-opacity="0.39"/>
<stop offset="0.63" stop-color="#FFE589" stop-opacity="0.22"/>
<stop offset="0.78" stop-color="#FFE589" stop-opacity="0.1"/>
<stop offset="0.91" stop-color="#FFE589" stop-opacity="0.03"/>
<stop offset="1" stop-color="#FFE589" stop-opacity="0"/>
</radialGradient>
<radialGradient id="paint5_radial" cx="0" cy="0" r="1" gradientUnits="userSpaceOnUse" gradientTransform="translate(-nan -nan) rotate(-nan) scale(-nan)">
<stop stop-color="#FFE589"/>
<stop offset="0.09" stop-color="#FFE589" stop-opacity="0.86"/>
<stop offset="0.29" stop-color="#FFE589" stop-opacity="0.6"/>
<stop offset="0.47" stop-color="#FFE589" stop-opacity="0.39"/>
<stop offset="0.63" stop-color="#FFE589" stop-opacity="0.22"/>
<stop offset="0.78" stop-color="#FFE589" stop-opacity="0.1"/>
<stop offset="0.91" stop-color="#FFE589" stop-opacity="0.03"/>
<stop offset="1" stop-color="#FFE589" stop-opacity="0"/>
</radialGradient>
<radialGradient id="paint6_radial" cx="0" cy="0" r="1" gradientUnits="userSpaceOnUse" gradientTransform="translate(-nan -nan) rotate(-nan) scale(-nan)">
<stop stop-color="#FFE589"/>
<stop offset="0.09" stop-color="#FFE589" stop-opacity="0.86"/>
<stop offset="0.29" stop-color="#FFE589" stop-opacity="0.6"/>
<stop offset="0.47" stop-color="#FFE589" stop-opacity="0.39"/>
<stop offset="0.63" stop-color="#FFE589" stop-opacity="0.22"/>
<stop offset="0.78" stop-color="#FFE589" stop-opacity="0.1"/>
<stop offset="0.91" stop-color="#FFE589" stop-opacity="0.03"/>
<stop offset="1" stop-color="#FFE589" stop-opacity="0"/>
</radialGradient>
<radialGradient id="paint7_radial" cx="0" cy="0" r="1" gradientUnits="userSpaceOnUse" gradientTransform="translate(-nan -nan) rotate(-nan) scale(-nan)">
<stop stop-color="#FFE589"/>
<stop offset="0.09" stop-color="#FFE589" stop-opacity="0.86"/>
<stop offset="0.29" stop-color="#FFE589" stop-opacity="0.6"/>
<stop offset="0.47" stop-color="#FFE589" stop-opacity="0.39"/>
<stop offset="0.63" stop-color="#FFE589" stop-opacity="0.22"/>
<stop offset="0.78" stop-color="#FFE589" stop-opacity="0.1"/>
<stop offset="0.91" stop-color="#FFE589" stop-opacity="0.03"/>
<stop offset="1" stop-color="#FFE589" stop-opacity="0"/>
</radialGradient>
<radialGradient id="paint8_radial" cx="0" cy="0" r="1" gradientUnits="userSpaceOnUse" gradientTransform="translate(-nan -nan) rotate(-nan) scale(-nan)">
<stop stop-color="#FFE589"/>
<stop offset="0.09" stop-color="#FFE589" stop-opacity="0.86"/>
<stop offset="0.29" stop-color="#FFE589" stop-opacity="0.6"/>
<stop offset="0.47" stop-color="#FFE589" stop-opacity="0.39"/>
<stop offset="0.63" stop-color="#FFE589" stop-opacity="0.22"/>
<stop offset="0.78" stop-color="#FFE589" stop-opacity="0.1"/>
<stop offset="0.91" stop-color="#FFE589" stop-opacity="0.03"/>
<stop offset="1" stop-color="#FFE589" stop-opacity="0"/>
</radialGradient>
<radialGradient id="paint9_radial" cx="0" cy="0" r="1" gradientUnits="userSpaceOnUse" gradientTransform="translate(-nan -nan) rotate(-nan) scale(-nan)">
<stop stop-color="#FFE589"/>
<stop offset="0.09" stop-color="#FFE589" stop-opacity="0.86"/>
<stop offset="0.29" stop-color="#FFE589" stop-opacity="0.6"/>
<stop offset="0.47" stop-color="#FFE589" stop-opacity="0.39"/>
<stop offset="0.63" stop-color="#FFE589" stop-opacity="0.22"/>
<stop offset="0.78" stop-color="#FFE589" stop-opacity="0.1"/>
<stop offset="0.91" stop-color="#FFE589" stop-opacity="0.03"/>
<stop offset="1" stop-color="#FFE589" stop-opacity="0"/>
</radialGradient>
<radialGradient id="paint10_radial" cx="0" cy="0" r="1" gradientUnits="userSpaceOnUse" gradientTransform="translate(-nan -nan) rotate(-nan) scale(-nan)">
<stop stop-color="#FFE589"/>
<stop offset="0.09" stop-color="#FFE589" stop-opacity="0.86"/>
<stop offset="0.29" stop-color="#FFE589" stop-opacity="0.6"/>
<stop offset="0.47" stop-color="#FFE589" stop-opacity="0.39"/>
<stop offset="0.63" stop-color="#FFE589" stop-opacity="0.22"/>
<stop offset="0.78" stop-color="#FFE589" stop-opacity="0.1"/>
<stop offset="0.91" stop-color="#FFE589" stop-opacity="0.03"/>
<stop offset="1" stop-color="#FFE589" stop-opacity="0"/>
</radialGradient>
<radialGradient id="paint11_radial" cx="0" cy="0" r="1" gradientUnits="userSpaceOnUse" gradientTransform="translate(95030.8 136839) scale(23846.4 30813.4)">
<stop stop-color="#FFE589"/>
<stop offset="0.09" stop-color="#FFE589" stop-opacity="0.86"/>
<stop offset="0.29" stop-color="#FFE589" stop-opacity="0.6"/>
<stop offset="0.47" stop-color="#FFE589" stop-opacity="0.39"/>
<stop offset="0.63" stop-color="#FFE589" stop-opacity="0.22"/>
<stop offset="0.78" stop-color="#FFE589" stop-opacity="0.1"/>
<stop offset="0.91" stop-color="#FFE589" stop-opacity="0.03"/>
<stop offset="1" stop-color="#FFE589" stop-opacity="0"/>
</radialGradient>
<radialGradient id="paint12_radial" cx="0" cy="0" r="1" gradientUnits="userSpaceOnUse" gradientTransform="translate(1392.44 897) scale(50)">
<stop stop-color="#FFE589"/>
<stop offset="0.09" stop-color="#FFE589" stop-opacity="0.86"/>
<stop offset="0.29" stop-color="#FFE589" stop-opacity="0.6"/>
<stop offset="0.47" stop-color="#FFE589" stop-opacity="0.39"/>
<stop offset="0.63" stop-color="#FFE589" stop-opacity="0.22"/>
<stop offset="0.78" stop-color="#FFE589" stop-opacity="0.1"/>
<stop offset="0.91" stop-color="#FFE589" stop-opacity="0.03"/>
<stop offset="1" stop-color="#FFE589" stop-opacity="0"/>
</radialGradient>
<radialGradient id="paint13_radial" cx="0" cy="0" r="1" gradientUnits="userSpaceOnUse" gradientTransform="translate(1799.31 1784.88) scale(72)">
<stop stop-color="#FFE589"/>
<stop offset="0.09" stop-color="#FFE589" stop-opacity="0.86"/>
<stop offset="0.29" stop-color="#FFE589" stop-opacity="0.6"/>
<stop offset="0.47" stop-color="#FFE589" stop-opacity="0.39"/>
<stop offset="0.63" stop-color="#FFE589" stop-opacity="0.22"/>
<stop offset="0.78" stop-color="#FFE589" stop-opacity="0.1"/>
<stop offset="0.91" stop-color="#FFE589" stop-opacity="0.03"/>
<stop offset="1" stop-color="#FFE589" stop-opacity="0"/>
</radialGradient>
<radialGradient id="paint14_radial" cx="0" cy="0" r="1" gradientUnits="userSpaceOnUse" gradientTransform="translate(1339.24 2224.28) scale(72)">
<stop stop-color="#FFE589"/>
<stop offset="0.09" stop-color="#FFE589" stop-opacity="0.86"/>
<stop offset="0.29" stop-color="#FFE589" stop-opacity="0.6"/>
<stop offset="0.47" stop-color="#FFE589" stop-opacity="0.39"/>
<stop offset="0.63" stop-color="#FFE589" stop-opacity="0.22"/>
<stop offset="0.78" stop-color="#FFE589" stop-opacity="0.1"/>
<stop offset="0.91" stop-color="#FFE589" stop-opacity="0.03"/>
<stop offset="1" stop-color="#FFE589" stop-opacity="0"/>
</radialGradient>
<radialGradient id="paint15_radial" cx="0" cy="0" r="1" gradientUnits="userSpaceOnUse" gradientTransform="translate(2053.2 2588.28) scale(72)">
<stop stop-color="#FFE589"/>
<stop offset="0.09" stop-color="#FFE589" stop-opacity="0.86"/>
<stop offset="0.29" stop-color="#FFE589" stop-opacity="0.6"/>
<stop offset="0.47" stop-color="#FFE589" stop-opacity="0.39"/>
<stop offset="0.63" stop-color="#FFE589" stop-opacity="0.22"/>
<stop offset="0.78" stop-color="#FFE589" stop-opacity="0.1"/>
<stop offset="0.91" stop-color="#FFE589" stop-opacity="0.03"/>
<stop offset="1" stop-color="#FFE589" stop-opacity="0"/>
</radialGradient>
<radialGradient id="paint16_radial" cx="0" cy="0" r="1" gradientUnits="userSpaceOnUse" gradientTransform="translate(17745.7 5099.34) scale(2812.5)">
<stop stop-color="#FFE589"/>
<stop offset="0.09" stop-color="#FFE589" stop-opacity="0.86"/>
<stop offset="0.29" stop-color="#FFE589" stop-opacity="0.6"/>
<stop offset="0.47" stop-color="#FFE589" stop-opacity="0.39"/>
<stop offset="0.63" stop-color="#FFE589" stop-opacity="0.22"/>
<stop offset="0.78" stop-color="#FFE589" stop-opacity="0.1"/>
<stop offset="0.91" stop-color="#FFE589" stop-opacity="0.03"/>
<stop offset="1" stop-color="#FFE589" stop-opacity="0"/>
</radialGradient>
<clipPath id="clip0">
<rect width="271.49" height="320.08" fill="white"/>
</clipPath>
</defs>
</svg>
